<svg xmlns="http://www.w3.org/2000/svg" viewBox="0 0 780 394" width="780" height="394" role="img" aria-label="개발자 두 명이라는 제약에서 정한 클라이언트, 서버와 인프라, 빌드와 배포의 방향" font-family="-apple-system, 'Apple SD Gothic Neo', 'Pretendard', 'Noto Sans KR', sans-serif">
<title>개발자 두 명이라는 제약에서 정한 클라이언트, 서버와 인프라, 빌드와 배포의 방향</title>
<defs><marker id="a" viewBox="0 0 10 10" refX="9" refY="5" markerWidth="7" markerHeight="7" orient="auto"><path d="M0 0L10 5L0 10z" fill="#6f6f6b"/></marker></defs>
<rect width="780" height="394" rx="16" fill="#ffffff" stroke="#dcdcd7"/>
<text x="40" y="44" text-anchor="start" font-size="14" font-weight="600" fill="#6f6f6b">개발 전에 정한 방향</text><rect x="40" y="64" width="150" height="300" rx="12" fill="#ffffff" stroke="#dcdcd7"/><text x="115.0" y="210.0" text-anchor="middle" font-size="17" font-weight="700" fill="#1f1f1f">개발자 2명</text><text x="115.0" y="232.0" text-anchor="middle" font-size="13" fill="#6f6f6b">제일 큰 제약</text><line x1="190" y1="110" x2="246" y2="110" stroke="#6f6f6b" stroke-width="1.5" marker-end="url(#a)"/><text x="252" y="82" text-anchor="start" font-size="13" font-weight="600" fill="#6f6f6b">클라이언트</text><rect x="252" y="90" width="230" height="62" rx="12" fill="#f4f4f1" stroke="#dcdcd7"/><text x="367" y="116" text-anchor="middle" font-size="16" font-weight="700" fill="#1f1f1f">Windows + macOS</text><text x="367" y="137" text-anchor="middle" font-size="13" font-weight="500" fill="#6f6f6b">같이 개발</text><rect x="502" y="90" width="230" height="62" rx="12" fill="#f4f4f1" stroke="#dcdcd7"/><text x="617" y="116" text-anchor="middle" font-size="16" font-weight="700" fill="#1f1f1f">안드로이드 + 아이폰</text><text x="617" y="137" text-anchor="middle" font-size="13" font-weight="500" fill="#6f6f6b">같이 개발</text><line x1="190" y1="214" x2="246" y2="214" stroke="#6f6f6b" stroke-width="1.5" marker-end="url(#a)"/><text x="252" y="186" text-anchor="start" font-size="13" font-weight="600" fill="#6f6f6b">서버와 인프라</text><rect x="252" y="194" width="230" height="62" rx="12" fill="#f4f4f1" stroke="#dcdcd7"/><text x="367" y="220" text-anchor="middle" font-size="16" font-weight="700" fill="#1f1f1f">홈서버</text><text x="367" y="241" text-anchor="middle" font-size="13" font-weight="500" fill="#6f6f6b">여기서 시작</text><rect x="502" y="194" width="230" height="62" rx="12" fill="#ffffff" stroke="#6f6f6b" stroke-dasharray="6 5"/><text x="617" y="220" text-anchor="middle" font-size="16" font-weight="700" fill="#1f1f1f">AWS</text><text x="617" y="241" text-anchor="middle" font-size="13" font-weight="500" fill="#6f6f6b">언제든 옮길 수 있게</text><line x1="482" y1="225" x2="500" y2="225" stroke="#6f6f6b" stroke-width="1.5" stroke-dasharray="5 5" marker-end="url(#a)"/><line x1="190" y1="318" x2="246" y2="318" stroke="#6f6f6b" stroke-width="1.5" marker-end="url(#a)"/><text x="252" y="290" text-anchor="start" font-size="13" font-weight="600" fill="#6f6f6b">빌드와 배포</text><rect x="252" y="298" width="230" height="62" rx="12" fill="#f4f4f1" stroke="#dcdcd7"/><text x="367" y="324" text-anchor="middle" font-size="16" font-weight="700" fill="#1f1f1f">GitHub</text><text x="367" y="345" text-anchor="middle" font-size="13" font-weight="500" fill="#6f6f6b">직접 만들지 않는다</text>
</svg>
